<mxfile host="app.diagrams.net" agent="Mozilla/5.0 (Macintosh; Intel Mac OS X 10_15_7) AppleWebKit/605.1.15 (KHTML, like Gecko) Version/18.0.1 Safari/605.1.15" version="26.2.2">
  <diagram name="Página-1" id="liNB8tPB-bw8ggNvzIbJ">
    <mxGraphModel grid="1" page="1" gridSize="10" guides="1" tooltips="1" connect="1" arrows="1" fold="1" pageScale="1" pageWidth="850" pageHeight="1100" math="0" shadow="0">
      <root>
        <mxCell id="0" />
        <mxCell id="1" parent="0" />
        <mxCell id="SlbwhRJMaLNQN9lABcIh-1" value="Sistema de navegação inteligente" style="swimlane;childLayout=stackLayout;resizeParent=1;resizeParentMax=0;startSize=20;html=1;" vertex="1" parent="1">
          <mxGeometry x="170" y="20" width="450" height="680" as="geometry">
            <mxRectangle x="170" y="30" width="60" height="30" as="alternateBounds" />
          </mxGeometry>
        </mxCell>
        <mxCell id="SlbwhRJMaLNQN9lABcIh-2" value="Drone" style="swimlane;startSize=20;html=1;" vertex="1" parent="SlbwhRJMaLNQN9lABcIh-1">
          <mxGeometry y="20" width="230" height="660" as="geometry" />
        </mxCell>
        <mxCell id="SlbwhRJMaLNQN9lABcIh-3" value="Iniciar missão" style="rounded=1;whiteSpace=wrap;html=1;" vertex="1" parent="SlbwhRJMaLNQN9lABcIh-2">
          <mxGeometry x="55" y="100" width="120" height="60" as="geometry" />
        </mxCell>
        <mxCell id="SlbwhRJMaLNQN9lABcIh-4" value="" style="shape=waypoint;sketch=0;fillStyle=solid;size=6;pointerEvents=1;points=[];fillColor=none;resizable=0;rotatable=0;perimeter=centerPerimeter;snapToPoint=1;perimeterSpacing=1;strokeWidth=7;" vertex="1" parent="SlbwhRJMaLNQN9lABcIh-2">
          <mxGeometry x="105" y="40" width="20" height="20" as="geometry" />
        </mxCell>
        <mxCell id="SlbwhRJMaLNQN9lABcIh-5" value="" style="endArrow=classic;html=1;rounded=0;" edge="1" parent="SlbwhRJMaLNQN9lABcIh-2">
          <mxGeometry width="50" height="50" relative="1" as="geometry">
            <mxPoint x="114.5" y="50" as="sourcePoint" />
            <mxPoint x="114.5" y="100" as="targetPoint" />
          </mxGeometry>
        </mxCell>
        <mxCell id="SlbwhRJMaLNQN9lABcIh-6" value="" style="endArrow=classic;html=1;rounded=0;exitX=1;exitY=0.5;exitDx=0;exitDy=0;" edge="1" parent="SlbwhRJMaLNQN9lABcIh-2" source="SlbwhRJMaLNQN9lABcIh-3">
          <mxGeometry width="50" height="50" relative="1" as="geometry">
            <mxPoint x="180" y="140" as="sourcePoint" />
            <mxPoint x="280" y="100" as="targetPoint" />
            <Array as="points" />
          </mxGeometry>
        </mxCell>
        <mxCell id="SlbwhRJMaLNQN9lABcIh-7" style="edgeStyle=orthogonalEdgeStyle;rounded=0;orthogonalLoop=1;jettySize=auto;html=1;exitX=0;exitY=0.5;exitDx=0;exitDy=0;entryX=0.5;entryY=0;entryDx=0;entryDy=0;" edge="1" parent="SlbwhRJMaLNQN9lABcIh-2" source="SlbwhRJMaLNQN9lABcIh-8">
          <mxGeometry relative="1" as="geometry">
            <mxPoint x="40" y="590" as="targetPoint" />
            <Array as="points">
              <mxPoint x="40" y="230" />
            </Array>
          </mxGeometry>
        </mxCell>
        <mxCell id="SlbwhRJMaLNQN9lABcIh-8" value="executar mudança de direção" style="rounded=1;whiteSpace=wrap;html=1;" vertex="1" parent="SlbwhRJMaLNQN9lABcIh-2">
          <mxGeometry x="55" y="200" width="120" height="60" as="geometry" />
        </mxCell>
        <mxCell id="SlbwhRJMaLNQN9lABcIh-29" style="edgeStyle=orthogonalEdgeStyle;rounded=0;orthogonalLoop=1;jettySize=auto;html=1;exitX=0.25;exitY=1;exitDx=0;exitDy=0;entryX=1;entryY=0.5;entryDx=0;entryDy=0;" edge="1" parent="SlbwhRJMaLNQN9lABcIh-2" source="SlbwhRJMaLNQN9lABcIh-9" target="SlbwhRJMaLNQN9lABcIh-10">
          <mxGeometry relative="1" as="geometry" />
        </mxCell>
        <mxCell id="SlbwhRJMaLNQN9lABcIh-9" value="Seguir percurso" style="rounded=1;whiteSpace=wrap;html=1;" vertex="1" parent="SlbwhRJMaLNQN9lABcIh-2">
          <mxGeometry x="55" y="310" width="120" height="60" as="geometry" />
        </mxCell>
        <mxCell id="SlbwhRJMaLNQN9lABcIh-10" value="" style="ellipse;html=1;shape=endState;fillColor=#000000;strokeColor=#ff0000;" vertex="1" parent="SlbwhRJMaLNQN9lABcIh-2">
          <mxGeometry x="25" y="590" width="30" height="30" as="geometry" />
        </mxCell>
        <mxCell id="SlbwhRJMaLNQN9lABcIh-11" value="Sistema de Navegação inteligente" style="swimlane;startSize=20;html=1;" vertex="1" parent="SlbwhRJMaLNQN9lABcIh-1">
          <mxGeometry x="230" y="20" width="220" height="660" as="geometry" />
        </mxCell>
        <mxCell id="SlbwhRJMaLNQN9lABcIh-12" value="Sensoriamento do Ambiente" style="rounded=1;whiteSpace=wrap;html=1;" vertex="1" parent="SlbwhRJMaLNQN9lABcIh-11">
          <mxGeometry x="50" y="70" width="120" height="60" as="geometry" />
        </mxCell>
        <mxCell id="SlbwhRJMaLNQN9lABcIh-13" value="Processar Dados Sensoriais" style="rounded=1;whiteSpace=wrap;html=1;" vertex="1" parent="SlbwhRJMaLNQN9lABcIh-11">
          <mxGeometry x="50" y="190" width="120" height="60" as="geometry" />
        </mxCell>
        <mxCell id="SlbwhRJMaLNQN9lABcIh-14" value="" style="endArrow=classic;html=1;rounded=0;exitX=0.5;exitY=1;exitDx=0;exitDy=0;entryX=0.5;entryY=0;entryDx=0;entryDy=0;" edge="1" parent="SlbwhRJMaLNQN9lABcIh-11" source="SlbwhRJMaLNQN9lABcIh-12" target="SlbwhRJMaLNQN9lABcIh-13">
          <mxGeometry width="50" height="50" relative="1" as="geometry">
            <mxPoint x="100" y="190" as="sourcePoint" />
            <mxPoint x="150" y="140" as="targetPoint" />
          </mxGeometry>
        </mxCell>
        <mxCell id="SlbwhRJMaLNQN9lABcIh-15" value="" style="edgeStyle=orthogonalEdgeStyle;rounded=0;orthogonalLoop=1;jettySize=auto;html=1;" edge="1" parent="SlbwhRJMaLNQN9lABcIh-11" source="SlbwhRJMaLNQN9lABcIh-16">
          <mxGeometry relative="1" as="geometry">
            <mxPoint x="110" y="400" as="targetPoint" />
          </mxGeometry>
        </mxCell>
        <mxCell id="SlbwhRJMaLNQN9lABcIh-16" value="Detecção de Ameaças" style="rounded=1;whiteSpace=wrap;html=1;" vertex="1" parent="SlbwhRJMaLNQN9lABcIh-11">
          <mxGeometry x="50" y="290" width="120" height="60" as="geometry" />
        </mxCell>
        <mxCell id="SlbwhRJMaLNQN9lABcIh-17" value="" style="endArrow=classic;html=1;rounded=0;exitX=0.5;exitY=1;exitDx=0;exitDy=0;" edge="1" parent="SlbwhRJMaLNQN9lABcIh-11">
          <mxGeometry width="50" height="50" relative="1" as="geometry">
            <mxPoint x="109.5" y="250" as="sourcePoint" />
            <mxPoint x="110" y="290" as="targetPoint" />
          </mxGeometry>
        </mxCell>
        <mxCell id="SlbwhRJMaLNQN9lABcIh-18" value="" style="endArrow=classic;html=1;rounded=0;entryX=0.5;entryY=0;entryDx=0;entryDy=0;" edge="1" parent="SlbwhRJMaLNQN9lABcIh-11">
          <mxGeometry width="50" height="50" relative="1" as="geometry">
            <mxPoint x="109.5" y="370" as="sourcePoint" />
            <mxPoint x="110" y="400" as="targetPoint" />
          </mxGeometry>
        </mxCell>
        <mxCell id="SlbwhRJMaLNQN9lABcIh-19" value="Acionar redes neurais" style="rounded=1;whiteSpace=wrap;html=1;" vertex="1" parent="SlbwhRJMaLNQN9lABcIh-11">
          <mxGeometry x="50" y="400" width="120" height="60" as="geometry" />
        </mxCell>
        <mxCell id="SlbwhRJMaLNQN9lABcIh-20" value="" style="endArrow=classic;html=1;rounded=0;" edge="1" parent="SlbwhRJMaLNQN9lABcIh-11">
          <mxGeometry width="50" height="50" relative="1" as="geometry">
            <mxPoint x="109.5" y="460" as="sourcePoint" />
            <mxPoint x="109.5" y="500" as="targetPoint" />
          </mxGeometry>
        </mxCell>
        <mxCell id="SlbwhRJMaLNQN9lABcIh-21" value="" style="rhombus;whiteSpace=wrap;html=1;" vertex="1" parent="SlbwhRJMaLNQN9lABcIh-11">
          <mxGeometry x="92.5" y="500" width="35" height="40" as="geometry" />
        </mxCell>
        <mxCell id="SlbwhRJMaLNQN9lABcIh-22" value="Ameaça detectada" style="text;html=1;align=center;verticalAlign=middle;whiteSpace=wrap;rounded=0;rotation=30;" vertex="1" parent="SlbwhRJMaLNQN9lABcIh-11">
          <mxGeometry x="11.5" y="499.33" width="60" height="20" as="geometry" />
        </mxCell>
        <mxCell id="SlbwhRJMaLNQN9lABcIh-23" value="Ameaças não detectadas" style="text;html=1;align=center;verticalAlign=middle;whiteSpace=wrap;rounded=0;fontSize=11;" vertex="1" parent="SlbwhRJMaLNQN9lABcIh-11">
          <mxGeometry x="14" y="570" width="76" height="11" as="geometry" />
        </mxCell>
        <mxCell id="SlbwhRJMaLNQN9lABcIh-24" value="" style="swimlane;startSize=20;html=1;" vertex="1" parent="SlbwhRJMaLNQN9lABcIh-1">
          <mxGeometry x="450" y="20" height="660" as="geometry" />
        </mxCell>
        <mxCell id="SlbwhRJMaLNQN9lABcIh-25" value="" style="endArrow=classic;html=1;rounded=0;entryX=1;entryY=1;entryDx=0;entryDy=0;exitX=0;exitY=0.5;exitDx=0;exitDy=0;" edge="1" parent="SlbwhRJMaLNQN9lABcIh-1" source="SlbwhRJMaLNQN9lABcIh-21" target="SlbwhRJMaLNQN9lABcIh-8">
          <mxGeometry width="50" height="50" relative="1" as="geometry">
            <mxPoint x="320" y="540" as="sourcePoint" />
            <mxPoint x="240" y="370" as="targetPoint" />
            <Array as="points">
              <mxPoint x="250" y="470" />
            </Array>
          </mxGeometry>
        </mxCell>
        <mxCell id="SlbwhRJMaLNQN9lABcIh-26" style="edgeStyle=orthogonalEdgeStyle;rounded=0;orthogonalLoop=1;jettySize=auto;html=1;exitX=0.5;exitY=1;exitDx=0;exitDy=0;entryX=0.5;entryY=1;entryDx=0;entryDy=0;" edge="1" parent="SlbwhRJMaLNQN9lABcIh-1" source="SlbwhRJMaLNQN9lABcIh-21" target="SlbwhRJMaLNQN9lABcIh-9">
          <mxGeometry relative="1" as="geometry">
            <mxPoint x="110" y="369.9999999999999" as="targetPoint" />
          </mxGeometry>
        </mxCell>
      </root>
    </mxGraphModel>
  </diagram>
</mxfile>
